<svg width="1440" height="778" viewBox="0 0 1440 778" fill="none" xmlns="http://www.w3.org/2000/svg">
<g clip-path="url(#clip0_296_378)">
<path d="M668.399 240.992L633.778 289.365L634.434 332.213L668.771 351.324L668.399 240.992Z" fill="#352525"/>
<path d="M683.329 240.992H668.399V726.235H683.329V240.992Z" fill="#4C3434"/>
<path d="M668.755 710.161H565.929V312.768C565.929 312.768 583.377 298.896 617.366 298.896C654.991 298.896 668.795 312.768 668.795 312.768L668.755 710.161Z" fill="#E5B64E"/>
<path d="M616.969 298.897C612.726 298.89 608.485 299.116 604.266 299.574C631.519 302.348 641.907 312.744 641.907 312.744V710.136H668.399V312.744C668.399 312.744 654.586 298.897 616.969 298.897Z" fill="#C99E47"/>
<path d="M654.894 616.915C655.199 612.722 654.968 608.507 654.205 604.373C637.3 603.484 580.826 604.161 580.826 604.161C580.826 604.161 579.256 605.948 580.826 618.327C587.781 613.382 655.193 612.761 654.894 616.915Z" fill="#B77158"/>
<path d="M656.084 636.468C656.39 632.275 656.158 628.059 655.396 623.926C638.49 623.036 582.017 623.714 582.017 623.714C582.017 623.714 580.446 625.501 582.017 637.879C588.98 632.934 656.383 632.314 656.084 636.468Z" fill="#B77158"/>
<path d="M585.976 698.018C607.739 695.268 630.41 692.6 651.145 699.805C651.145 682.778 651.145 665.753 651.145 648.732C651.194 648.174 651.102 647.612 650.878 647.1C650.536 646.571 650.041 646.161 649.461 645.925C643.453 642.832 636.409 642.718 629.665 642.791C621.908 642.862 614.154 643.093 606.403 643.485C599.554 643.827 590.704 643.109 584.275 645.304C584.834 649.776 587.66 697.806 585.976 698.018Z" fill="#B77158"/>
<path opacity="0.25" d="M579.409 318.635C575.977 327.113 577.701 336.685 578.94 345.751C583.96 382.552 580.001 420.007 583.158 457.045C583.45 460.505 584.778 464.944 588.259 464.952C591.967 464.952 593.117 459.934 593.117 456.196C592.993 420.483 594.183 384.791 596.688 349.121C597.149 342.479 598.056 335.053 603.221 330.892C607.772 327.228 615.488 325.996 616.281 320.186C617.18 313.535 606.007 308.068 600.533 307.203C592.048 305.857 582.672 310.565 579.409 318.635Z" fill="white"/>
<path opacity="0.25" d="M584.194 480.422C581.255 485.906 582.575 492.597 583.709 498.734C586.438 513.861 587.222 529.28 586.041 544.609C585.846 547.147 585.603 549.758 586.324 552.198C587.044 554.638 588.98 556.914 591.498 557.175C594.016 557.437 596.509 555.47 597.619 553.095C598.728 550.721 598.817 547.995 598.882 545.36C599.243 529.04 599.265 512.739 598.946 496.457C598.874 492.777 598.768 489.031 597.659 485.531C595.837 479.917 588.478 472.352 584.194 480.422Z" fill="white"/>
<path d="M753.769 348.02L733.228 470.371C733.228 470.371 798.518 726.244 801.376 726.244C804.234 726.244 897.41 723.363 897.41 723.363L753.769 348.02Z" fill="#84321F"/>
<path d="M927.002 712.036L859.121 731.008L753.769 348.018C753.769 348.018 761.606 331.462 784.042 325.17C808.866 318.234 821.65 329.03 821.65 329.03L927.002 712.036Z" fill="#AA4724"/>
<path d="M783.807 325.261C781 326.042 778.257 327.043 775.605 328.256C794.324 325.906 803.943 333.968 803.943 333.968L909.295 716.949L926.776 712.053L821.423 329.088C821.423 329.088 808.631 318.325 783.807 325.261Z" fill="#993E22"/>
<path d="M1001.9 727.72L934.014 746.692L828.662 363.702C828.662 363.702 836.499 347.145 858.927 340.854C883.759 333.918 896.543 344.714 896.543 344.714L1001.9 727.72Z" fill="#4F5E40"/>
<path d="M858.668 340.944C855.861 341.728 853.119 342.729 850.466 343.939C869.185 341.589 878.804 349.651 878.804 349.651L984.164 732.673L1001.65 727.777L896.308 344.804C896.308 344.804 883.524 333.984 858.668 340.944Z" fill="#3D4731"/>
<path d="M753.769 719.063H683.329V321.63C683.329 321.63 695.271 307.758 718.549 307.758C744.312 307.758 753.769 321.63 753.769 321.63V719.063Z" fill="#4F5E40"/>
<path d="M718.306 292.367C715.394 292.362 712.486 292.588 709.61 293.045C728.232 295.819 735.381 306.215 735.381 306.215V703.607H753.526V306.215C753.526 306.215 744.069 292.367 718.306 292.367Z" fill="#3D4731"/>
<path d="M718.549 410.696C726.656 410.696 733.228 391.688 733.228 368.24C733.228 344.792 726.656 325.783 718.549 325.783C710.442 325.783 703.87 344.792 703.87 368.24C703.87 391.688 710.442 410.696 718.549 410.696Z" fill="#E5B64E"/>
<path d="M805.805 385.669C804.672 399.933 803.004 414.136 800.802 428.28C800.17 432.322 799.495 436.351 798.778 440.365C798.716 440.627 798.756 440.902 798.888 441.135C799.02 441.368 799.235 441.542 799.49 441.622C805.408 443.662 809.935 448.223 813.764 453.046C818.282 458.758 822.339 464.829 826.557 470.737L834.265 481.533C834.392 481.746 834.593 481.906 834.829 481.982C835.065 482.058 835.32 482.045 835.547 481.945C835.774 481.845 835.957 481.665 836.063 481.439C836.168 481.213 836.188 480.956 836.119 480.717C833.514 466.08 832.999 451.143 834.589 436.359C835.042 432.148 835.682 427.962 836.475 423.809C836.525 423.592 836.508 423.366 836.425 423.16C836.343 422.954 836.199 422.778 836.014 422.658C826.21 415.002 818.39 405.069 813.222 393.706C811.75 390.461 810.506 387.115 809.497 383.694C809.42 383.441 809.248 383.228 809.017 383.101C808.787 382.973 808.516 382.941 808.263 383.011C808.009 383.081 807.793 383.247 807.659 383.476C807.525 383.704 807.485 383.975 807.546 384.233C811.23 396.65 817.867 407.972 826.881 417.215C829.415 419.801 832.12 422.211 834.977 424.429L834.516 423.27C831.653 438.18 830.942 453.427 832.403 468.542C832.813 472.812 833.398 477.055 834.159 481.271L836.005 480.455L821.755 460.512C817.901 455.11 814.137 449.431 809.109 445.008C806.458 442.621 803.369 440.781 800.016 439.59L800.721 440.839C803.258 426.646 805.252 412.368 806.704 398.007C807.125 393.878 807.497 389.743 807.821 385.604C807.927 384.298 805.902 384.298 805.797 385.604L805.805 385.669Z" fill="#C99E47"/>
<path d="M816.841 434.181C815.707 448.445 814.039 462.649 811.837 476.793C811.206 480.835 810.531 484.863 809.813 488.878C809.751 489.138 809.79 489.412 809.92 489.645C810.051 489.878 810.264 490.053 810.517 490.134C816.444 492.174 820.97 496.744 824.8 501.558C829.318 507.27 833.366 513.333 837.592 519.249L845.3 530.037C845.422 530.26 845.622 530.428 845.862 530.51C846.101 530.592 846.362 530.58 846.593 530.478C846.824 530.376 847.009 530.19 847.111 529.957C847.214 529.725 847.226 529.462 847.146 529.221C844.549 514.58 844.036 499.641 845.624 484.855C846.077 480.652 846.717 476.466 847.511 472.305C847.56 472.088 847.541 471.86 847.457 471.654C847.373 471.448 847.228 471.273 847.041 471.154C837.243 463.498 829.426 453.568 824.257 442.211C822.783 438.963 821.539 435.614 820.533 432.19C820.455 431.937 820.283 431.724 820.053 431.597C819.822 431.469 819.552 431.437 819.298 431.507C819.045 431.577 818.828 431.744 818.694 431.972C818.561 432.2 818.52 432.471 818.582 432.729C822.266 445.145 828.903 456.467 837.916 465.711C840.447 468.299 843.152 470.706 846.013 472.917L845.551 471.766C842.69 486.673 841.976 501.918 843.43 517.03C843.851 521.295 844.437 525.538 845.187 529.759L847.041 528.943L832.791 508.992C828.929 503.59 825.164 497.911 820.144 493.488C817.481 491.156 814.396 489.364 811.06 488.209L811.764 489.465C814.29 475.267 816.285 460.987 817.748 446.625C818.158 442.496 818.53 438.362 818.865 434.222C818.97 432.916 816.946 432.925 816.841 434.222V434.181Z" fill="#C99E47"/>
<path d="M843.535 627.842C854.717 622.109 866.815 618.413 879.273 616.924C882.787 616.508 886.317 616.279 889.856 616.214C890.124 616.214 890.381 616.106 890.571 615.915C890.761 615.724 890.868 615.464 890.868 615.194C890.868 614.923 890.761 614.664 890.571 614.473C890.381 614.281 890.124 614.174 889.856 614.174C877.045 614.407 864.376 616.921 852.433 621.599C849.054 622.927 845.748 624.42 842.515 626.079C841.357 626.675 842.377 628.438 843.535 627.842Z" fill="#C99E47"/>
<path d="M846.984 637.282C847.253 637.282 847.51 637.175 847.7 636.983C847.89 636.792 847.996 636.533 847.996 636.262C847.996 635.992 847.89 635.732 847.7 635.541C847.51 635.35 847.253 635.242 846.984 635.242C846.716 635.242 846.458 635.35 846.269 635.541C846.079 635.732 845.972 635.992 845.972 636.262C845.972 636.533 846.079 636.792 846.269 636.983C846.458 637.175 846.716 637.282 846.984 637.282Z" fill="#C99E47"/>
<path d="M847.171 637.063C854.331 634.341 861.654 632.074 869.096 630.274C872.82 629.377 876.569 628.599 880.342 627.941C882.229 627.606 884.115 627.312 886.01 627.043C886.933 626.912 887.848 626.79 888.779 626.676C889.143 626.627 890.981 626.162 891.208 626.57C891.343 626.803 891.565 626.973 891.825 627.042C892.084 627.111 892.36 627.073 892.592 626.937C892.824 626.801 892.993 626.577 893.061 626.315C893.13 626.054 893.092 625.775 892.957 625.542C892.333 624.489 891.208 624.35 890.09 624.473C888.471 624.644 886.852 624.872 885.233 625.101C882.075 625.552 878.931 626.096 875.8 626.733C869.478 627.984 863.227 629.572 857.073 631.49C853.543 632.578 850.034 633.789 846.547 635.121C845.341 635.578 845.867 637.569 847.09 637.088L847.171 637.063Z" fill="#C99E47"/>
<path d="M842.215 371.699L842.588 371.356C842.677 371.274 843.227 370.817 842.823 371.144C842.418 371.47 842.896 371.095 842.944 371.054L843.365 370.777C844.014 370.344 844.69 369.954 845.389 369.61C845.746 369.43 846.11 369.275 846.458 369.104C845.818 369.406 846.458 369.104 846.741 368.99C847.478 368.704 848.223 368.435 848.976 368.174C852.182 367.086 855.405 366.014 858.643 364.959C865.187 362.761 871.886 361.061 878.682 359.875L880.188 359.646H880.051L880.998 359.524C881.945 359.418 882.893 359.32 883.84 359.247C885.799 359.092 887.775 359.018 889.742 359.026C890.816 359.026 891.846 358.596 892.605 357.831C893.364 357.066 893.79 356.028 893.79 354.946C893.79 353.864 893.364 352.826 892.605 352.061C891.846 351.296 890.816 350.866 889.742 350.866C875.063 350.785 860.886 355.452 847.146 360.177C843.276 361.507 839.536 363.082 836.491 365.889C836.114 366.268 835.815 366.718 835.611 367.214C835.407 367.709 835.302 368.241 835.302 368.777C835.302 369.314 835.407 369.846 835.611 370.341C835.815 370.837 836.114 371.287 836.491 371.666C837.262 372.408 838.287 372.822 839.353 372.822C840.419 372.822 841.444 372.408 842.215 371.666V371.699Z" fill="#C99E47"/>
<path d="M844.604 387.678C845.404 387.678 846.187 387.438 846.853 386.99C847.519 386.542 848.038 385.904 848.344 385.159C848.651 384.413 848.731 383.593 848.574 382.802C848.418 382.01 848.033 381.283 847.466 380.713C846.9 380.142 846.179 379.753 845.394 379.596C844.608 379.439 843.794 379.519 843.055 379.828C842.315 380.137 841.683 380.66 841.238 381.331C840.793 382.002 840.556 382.791 840.556 383.598C840.566 384.676 840.996 385.708 841.753 386.471C842.51 387.234 843.533 387.667 844.604 387.678Z" fill="#C99E47"/>
<path d="M846.523 386.902C848.102 386.151 849.68 385.433 851.283 384.756L851.688 384.584L852.903 384.095C853.712 383.768 854.522 383.458 855.332 383.148C858.522 381.941 861.768 380.855 865.048 379.884C868.327 378.913 871.646 378.114 874.99 377.436C876.609 377.094 878.277 376.783 879.929 376.514C880.739 376.375 881.548 376.253 882.318 376.139L883.613 375.951C883.54 375.951 882.974 376.033 883.459 375.951L884.382 375.829C888.196 375.364 892.042 375.07 895.887 374.939C896.961 374.939 897.991 374.509 898.75 373.744C899.509 372.979 899.936 371.941 899.936 370.859C899.936 369.777 899.509 368.739 898.75 367.974C897.991 367.209 896.961 366.779 895.887 366.779C881.601 367.241 867.479 369.996 854.053 374.939C850.11 376.392 846.239 378.04 842.442 379.835C840.515 380.749 839.875 383.679 840.985 385.417C841.546 386.329 842.433 386.991 843.463 387.264C844.494 387.537 845.589 387.402 846.523 386.886V386.902Z" fill="#C99E47"/>
<path d="M934.654 633.456C936.63 627.423 938.161 621.251 939.236 614.99H931.423C933.318 621.366 935.207 627.739 937.091 634.109C938.014 637.226 938.939 640.346 939.868 643.469C940.305 644.962 940.677 646.488 941.204 647.948C941.447 648.774 941.918 649.513 942.561 650.079C943.205 650.645 943.995 651.016 944.839 651.147C945.688 651.267 946.554 651.123 947.32 650.736C948.087 650.348 948.718 649.734 949.13 648.977C949.486 648.356 949.673 647.653 949.673 646.937C949.673 646.22 949.486 645.517 949.13 644.897C949.13 644.848 949.074 644.807 949.049 644.766C948.806 644.262 948.462 643.814 948.039 643.449C947.616 643.085 947.124 642.812 946.592 642.649C946.06 642.485 945.5 642.433 944.947 642.497C944.395 642.561 943.861 642.739 943.379 643.02C942.898 643.301 942.479 643.679 942.149 644.131C941.819 644.582 941.586 645.097 941.462 645.644C941.338 646.191 941.328 646.757 941.431 647.308C941.534 647.859 941.749 648.382 942.062 648.846L942.143 648.968V644.888L942.054 645.052L944.483 643.175L944.305 643.224L947.422 643.64L947.268 643.542L948.717 645.003C948.96 645.68 949.017 645.819 948.895 645.419C948.839 645.223 948.782 645.027 948.717 644.831C948.628 644.505 948.531 644.187 948.434 643.86C948.224 643.142 948.005 642.432 947.794 641.714C947.414 640.417 946.985 639.111 946.636 637.814C945.811 635.012 944.982 632.216 944.151 629.425L939.244 612.852C938.999 611.997 938.487 611.244 937.785 610.704C937.082 610.165 936.225 609.868 935.342 609.857C933.674 609.931 931.747 611.049 931.431 612.852C930.353 619.111 928.824 625.283 926.857 631.318C926.715 631.835 926.676 632.374 926.742 632.906C926.807 633.438 926.976 633.951 927.238 634.417C927.501 634.883 927.852 635.293 928.271 635.622C928.69 635.951 929.17 636.194 929.682 636.337C930.718 636.598 931.813 636.447 932.74 635.915C933.668 635.383 934.356 634.511 934.662 633.481L934.654 633.456Z" fill="#C99E47"/>
<path d="M1264.63 719.063H1161.76V321.63C1161.76 321.63 1179.21 307.758 1213.2 307.758C1250.82 307.758 1264.63 321.63 1264.63 321.63V719.063Z" fill="#E5B64E"/>
<path d="M1212.84 307.781C1208.6 307.779 1204.36 308.005 1200.14 308.459C1227.39 311.233 1237.78 321.629 1237.78 321.629V719.062H1264.3V321.629C1264.3 321.629 1250.47 307.781 1212.84 307.781Z" fill="#C99E47"/>
<path d="M1250.77 625.835C1251.07 621.642 1250.84 617.426 1250.08 613.293C1233.17 612.403 1176.7 613.081 1176.7 613.081C1176.7 613.081 1175.13 614.868 1176.7 627.247C1183.65 622.31 1251.07 621.681 1250.77 625.835Z" fill="#B77158"/>
<path d="M1251.96 645.386C1252.26 641.193 1252.03 636.978 1251.28 632.844C1234.36 631.954 1177.89 632.632 1177.89 632.632C1177.89 632.632 1176.32 634.419 1177.89 646.797C1184.85 641.86 1252.27 641.232 1251.96 645.386Z" fill="#B77158"/>
<path d="M1181.85 706.938C1203.61 704.188 1226.28 701.519 1247.02 708.725C1247.02 691.703 1247.02 674.678 1247.02 657.651C1247.07 657.093 1246.98 656.532 1246.75 656.019C1246.41 655.495 1245.91 655.088 1245.33 654.852C1239.33 651.76 1232.28 651.645 1225.54 651.711C1217.78 651.781 1210.03 652.013 1202.28 652.404C1195.43 652.747 1186.58 652.029 1180.15 654.224C1180.71 658.687 1183.53 706.725 1181.85 706.938Z" fill="#B77158"/>
<path opacity="0.25" d="M1175.28 327.561C1171.85 336.031 1173.57 345.603 1174.81 354.669C1179.83 391.479 1175.87 428.925 1179.03 465.971C1179.32 469.423 1180.69 473.862 1184.13 473.87C1187.84 473.87 1188.99 468.852 1188.99 465.114C1188.87 429.395 1190.06 393.706 1192.56 358.047C1193.02 351.397 1193.93 343.971 1199.1 339.818C1203.65 336.146 1211.36 334.922 1212.15 329.104C1213.05 322.453 1201.88 316.994 1196.41 316.121C1187.92 314.775 1178.55 319.483 1175.28 327.561Z" fill="white"/>
<path opacity="0.25" d="M1180.03 489.343C1177.1 494.826 1178.41 501.526 1179.55 507.654C1182.27 522.782 1183.05 538.2 1181.87 553.529C1181.68 556.075 1181.44 558.678 1182.16 561.126C1182.88 563.574 1184.81 565.834 1187.33 566.096C1189.85 566.357 1192.34 564.39 1193.46 562.016C1194.58 559.641 1194.65 556.907 1194.72 554.272C1195.08 537.952 1195.1 521.651 1194.78 505.369C1194.71 501.689 1194.6 497.951 1193.49 494.443C1191.71 488.837 1184.35 481.272 1180.03 489.343Z" fill="white"/>
<path d="M1346.89 714.786L1264.66 714.158L1266.98 405.106C1266.98 405.106 1281.01 394.449 1308.18 394.653C1338.26 394.882 1349.21 405.735 1349.21 405.735L1346.89 714.786Z" fill="#6F53AD"/>
<path d="M1307.86 394.654C1304.47 394.626 1301.08 394.776 1297.7 395.102C1319.47 397.428 1327.72 405.572 1327.72 405.572L1325.39 714.624L1346.57 714.787L1348.9 405.735C1348.9 405.735 1337.93 394.882 1307.86 394.654Z" fill="#5E4A96"/>
<path opacity="0.25" d="M1277.73 409.807C1274.94 416.375 1276.26 423.825 1277.19 430.884C1280.99 459.534 1277.61 488.657 1279.91 517.461C1280.13 520.146 1281.19 523.606 1283.96 523.63C1286.93 523.63 1287.87 519.763 1287.89 516.858C1288 489.081 1289.16 461.337 1291.37 433.626C1291.78 428.46 1292.55 422.691 1296.7 419.484C1300.36 416.661 1306.54 415.755 1307.22 411.243C1307.99 406.069 1299.08 401.761 1294.72 401.051C1287.91 399.941 1280.38 403.548 1277.73 409.807Z" fill="white"/>
<path opacity="0.25" d="M1280.58 535.642C1278.2 539.885 1279.23 545.1 1280.09 549.881C1282.18 561.652 1282.73 573.651 1281.7 585.565C1281.39 587.528 1281.45 589.533 1281.88 591.473C1282.44 593.374 1283.97 595.153 1285.99 595.373C1288 595.594 1290.04 594.076 1290.91 592.224C1291.78 590.371 1291.89 588.266 1291.95 586.218C1292.34 573.548 1292.46 560.87 1292.29 548.184C1292.39 545.318 1292.06 542.453 1291.33 539.681C1289.91 535.324 1284.08 529.392 1280.58 535.642Z" fill="white"/>
<path d="M1160.94 711.417H1058.11V386.576C1058.11 386.576 1075.55 375.258 1109.54 375.258C1147.16 375.258 1160.98 386.576 1160.98 386.576L1160.94 711.417Z" fill="#5B3E3E"/>
<path d="M1109.5 375.258C1104.51 375.258 1099.89 375.511 1095.61 375.927C1121.93 378.375 1132 386.576 1132 386.576V711.417H1160.94V386.576C1160.94 386.576 1147.12 375.258 1109.5 375.258Z" fill="#4C3434"/>
<path d="M1160.94 418.848C1143.67 411.92 1124.12 411.504 1105.42 413.005C1090.31 414.221 1075.12 416.612 1060.89 422.03C1059.92 422.397 1058.98 422.74 1058.07 423.091V439.664C1061.95 437.472 1066 435.582 1070.17 434.009C1095.7 424.235 1123.52 422.265 1150.16 428.346C1153.85 429.155 1157.46 430.321 1160.94 431.83V418.848Z" fill="#C69775"/>
<path d="M1160.94 431.815V418.848C1151.77 415.168 1141.97 413.34 1132 412.639V425.45C1138.11 425.999 1144.18 426.967 1150.16 428.347C1153.86 429.142 1157.47 430.304 1160.94 431.815Z" fill="#AD8468"/>
<path d="M1160.82 459.418V446.436C1151.66 442.756 1141.86 440.928 1131.89 440.234V453.037C1138 453.59 1144.06 454.558 1150.05 455.934C1153.74 456.74 1157.35 457.907 1160.82 459.418Z" fill="#AD8468"/>
<path d="M1160.94 446.24C1143.67 439.313 1124.12 438.896 1105.42 440.398C1090.31 441.614 1075.12 444.005 1060.89 449.423L1058.07 450.484V467.057C1061.95 464.864 1066 462.976 1070.17 461.41C1095.7 451.629 1123.52 449.657 1150.16 455.739C1153.85 456.547 1157.46 457.714 1160.94 459.223V446.24Z" fill="#C69775"/>
<path d="M1160.82 459.418V446.436C1151.66 442.756 1141.86 440.928 1131.89 440.234V453.037C1138 453.59 1144.06 454.558 1150.05 455.934C1153.74 456.74 1157.35 457.907 1160.82 459.418Z" fill="#AD8468"/>
<path d="M1146.68 693.759H1077.05V627.745C1077.05 627.745 1097.56 624.064 1111.86 623.999C1128.29 623.926 1146.68 627.745 1146.68 627.745V693.759Z" fill="#C69775"/>
<path d="M1146.68 628.012C1146.68 628.012 1140.11 626.65 1131.34 625.564C1131.39 625.915 1131.46 626.266 1131.51 626.601C1132.78 635.577 1131.39 644.765 1128.36 653.235C1126.62 658.089 1124.37 662.74 1121.64 667.107C1119.15 671.223 1116.16 675.006 1112.73 678.368C1103.22 687.442 1090.16 691.563 1076.99 692.729V693.97H1146.62L1146.68 628.012Z" fill="#AD8468"/>
<path opacity="0.1" d="M1071.97 397.46C1070.68 402.486 1072.08 407.749 1073.19 412.817C1082.31 454.164 1072.54 497.412 1076.8 539.55C1077.01 541.631 1078.02 544.348 1080.08 544.046C1081.79 543.793 1082.33 541.598 1082.46 539.852C1085.86 495.453 1077.36 450.026 1087.38 406.648C1088.44 402.054 1090.42 392.523 1085.12 389.512C1079.82 386.501 1073.23 392.604 1071.97 397.46Z" fill="white"/>
<path opacity="0.1" d="M1077.74 556.043C1078.17 565.905 1078.59 575.771 1079.02 585.639C1078.97 587.564 1079.31 589.479 1080.01 591.269C1080.82 593.008 1082.57 594.452 1084.47 594.305C1085.06 594.276 1085.62 594.033 1086.04 593.62C1086.56 592.857 1086.77 591.922 1086.63 591.008C1086.25 581.728 1085.88 572.452 1085.52 563.183C1085.4 560.188 1086.47 553.187 1083.6 551.188C1079.99 548.691 1077.61 552.828 1077.74 556.043Z" fill="white"/>
<path d="M463.637 709.89V606.258H69.3348C69.3348 606.258 55.5706 623.834 55.5706 658.09C55.5706 696.01 69.3348 709.922 69.3348 709.922L463.637 709.89Z" fill="#E5B64E"/>
<path d="M55.5544 657.699C55.5525 653.423 55.7769 649.149 56.2265 644.896C58.9793 672.363 69.2943 682.832 69.2943 682.832H463.637V709.532H69.3347C69.3347 709.532 55.5544 695.619 55.5544 657.699Z" fill="#C99E47"/>
<path d="M371.134 695.922C366.974 696.229 362.792 695.998 358.689 695.236C357.807 678.19 358.479 621.274 358.479 621.274C358.479 621.274 360.26 619.691 372.534 621.274C367.636 628.291 367.013 696.232 371.134 695.922Z" fill="#B77158"/>
<path d="M390.533 697.104C386.373 697.404 382.191 697.171 378.089 696.41C377.206 679.364 377.878 622.448 377.878 622.448C377.878 622.448 379.659 620.865 391.934 622.448C387.035 629.49 386.412 697.43 390.533 697.104Z" fill="#B77158"/>
<path d="M451.614 626.464C448.877 648.398 446.237 671.246 453.379 692.144H402.71C402.157 692.191 401.6 692.099 401.091 691.874C400.573 691.528 400.17 691.034 399.933 690.454C396.865 684.391 396.751 677.3 396.816 670.495C396.897 662.678 397.126 654.863 397.504 647.051C397.844 640.148 397.14 631.229 399.31 624.75C403.731 625.297 451.411 628.161 451.614 626.464Z" fill="#B77158"/>
<path opacity="0.25" d="M75.1804 619.845C83.5927 616.385 93.0819 618.123 102.077 619.372C138.601 624.431 175.756 620.441 212.514 623.623C215.939 623.917 220.352 625.255 220.352 628.764C220.352 632.501 215.372 633.66 211.664 633.66C176.223 633.535 140.811 634.734 105.429 637.259C98.8386 637.732 91.4707 638.638 87.3414 643.844C83.698 648.43 82.4835 656.214 76.7107 657.006C70.112 657.911 64.6954 646.651 63.8291 641.135C62.4932 632.583 67.1729 623.134 75.1804 619.845Z" fill="white"/>
<path opacity="0.25" d="M235.703 624.635C241.144 621.673 247.791 623.004 253.879 624.146C268.89 626.889 284.188 627.678 299.398 626.496C301.916 626.3 304.507 626.055 306.928 626.774C309.349 627.492 311.608 629.45 311.859 631.988C312.11 634.525 310.167 637.047 307.811 638.165C305.454 639.283 302.742 639.372 300.127 639.43C283.934 639.794 267.76 639.816 251.604 639.495C247.953 639.421 244.244 639.324 240.763 638.198C235.233 636.402 227.695 628.985 235.703 624.635Z" fill="white"/>
<path d="M463.459 606.732V523.859H156.802C156.802 523.859 146.122 537.911 146.122 565.296C146.122 595.602 156.802 606.732 156.802 606.732H463.459Z" fill="#6F53AD"/>
<path d="M146.122 565.002C146.121 561.585 146.294 558.169 146.641 554.77C148.786 576.728 156.802 585.092 156.802 585.092H463.459V606.439H156.802C156.802 606.439 146.122 595.317 146.122 565.002Z" fill="#5E4A96"/>
<path opacity="0.25" d="M161.384 534.721C167.918 531.954 175.302 533.35 182.298 534.345C210.701 538.425 239.621 535.161 268.178 537.74C270.842 537.976 274.275 539.078 274.275 541.82C274.275 544.806 270.405 545.728 267.522 545.72C239.962 545.622 212.433 546.583 184.937 548.601C179.812 548.976 174.08 549.702 170.874 553.856C168.04 557.528 167.093 563.746 162.607 564.382C157.474 565.108 153.264 556.1 152.592 551.693C151.515 544.929 155.15 537.381 161.384 534.721Z" fill="white"/>
<path opacity="0.25" d="M286.241 538.571C290.476 536.204 295.641 537.29 300.378 538.179C312.043 540.377 323.946 541.008 335.776 540.056C337.724 539.763 339.71 539.841 341.63 540.284C343.516 540.864 345.265 542.422 345.468 544.454C345.67 546.486 344.148 548.534 342.31 549.35C340.472 550.166 338.367 550.313 336.335 550.362C323.758 550.656 311.181 550.672 298.605 550.411C295.76 550.49 292.919 550.141 290.176 549.375C285.828 547.979 279.983 542.063 286.241 538.571Z" fill="white"/>
<path d="M463.459 524.365V441.492H96.6849C96.6849 441.492 83.9085 455.544 83.9085 482.929C83.9085 513.235 96.6849 524.365 96.6849 524.365H463.459Z" fill="#4F5E40"/>
<path d="M83.8923 482.635C83.8877 479.214 84.0959 475.797 84.5157 472.402C87.0742 494.361 96.6606 502.733 96.6606 502.733H463.434V524.112H96.6606C96.6606 524.112 83.8923 512.949 83.8923 482.635Z" fill="#3D4731"/>
<path d="M1440 710H-2V783H1440V710Z" fill="#CCA079"/>
<path d="M565.888 711.417H463.021V386.576C463.021 386.576 480.47 375.258 514.459 375.258C552.084 375.258 565.888 386.576 565.888 386.576V711.417Z" fill="#5B3E3E"/>
<path d="M514.459 375.258C509.463 375.258 504.848 375.511 500.573 375.927C526.887 378.375 536.959 386.576 536.959 386.576V711.417H565.888V386.576C565.888 386.576 552.084 375.258 514.459 375.258Z" fill="#4C3434"/>
<path d="M565.888 418.848C548.618 411.92 529.073 411.504 510.378 413.005C495.27 414.221 480.081 416.612 465.847 422.03L463.03 423.091V439.664C466.929 437.47 470.989 435.58 475.174 434.009C500.706 424.235 528.531 422.265 555.168 428.346C558.861 429.155 562.467 430.321 565.937 431.83L565.888 418.848Z" fill="#C69775"/>
<path d="M565.888 431.815V418.848C556.731 415.168 546.926 413.34 536.959 412.639V425.45C543.071 425.999 549.138 426.967 555.12 428.347C558.814 429.142 562.421 430.304 565.888 431.815Z" fill="#AD8468"/>
<path d="M565.775 459.418V446.436C556.618 442.756 546.813 440.928 536.838 440.234V453.037C542.952 453.59 549.022 454.558 555.006 455.934C558.7 456.74 562.306 457.907 565.775 459.418Z" fill="#AD8468"/>
<path d="M565.888 446.24C548.618 439.313 529.073 438.896 510.378 440.398C495.27 441.614 480.081 444.005 465.847 449.423L463.03 450.484V467.057C466.928 464.862 470.988 462.974 475.174 461.41C500.705 451.629 528.531 449.656 555.168 455.739C558.861 456.547 562.467 457.714 565.937 459.223L565.888 446.24Z" fill="#C69775"/>
<path d="M565.775 459.418V446.436C556.618 442.756 546.813 440.928 536.838 440.234V453.037C542.952 453.59 549.022 454.558 555.006 455.934C558.7 456.74 562.306 457.907 565.775 459.418Z" fill="#AD8468"/>
<path d="M551.638 693.759H482.008V627.745C482.008 627.745 502.517 624.064 516.823 623.999C533.243 623.926 551.638 627.745 551.638 627.745V693.759Z" fill="#C69775"/>
<path d="M551.638 628.012C551.638 628.012 545.072 626.65 536.255 625.564C536.32 625.915 536.376 626.266 536.425 626.601C537.704 635.577 536.311 644.765 533.291 653.235C531.549 658.089 529.293 662.74 526.563 667.107C524.075 671.222 521.083 675.006 517.657 678.368C508.16 687.442 495.1 691.563 481.927 692.729V693.97H551.557L551.638 628.012Z" fill="#AD8468"/>
<path opacity="0.1" d="M476.931 397.46C475.636 402.486 477.037 407.749 478.154 412.817C487.271 454.164 477.49 497.412 481.757 539.55C481.967 541.631 482.98 544.348 484.996 544.046C486.712 543.793 487.263 541.598 487.425 539.852C490.817 495.453 482.316 450.026 492.331 406.648C493.392 402.054 495.383 392.523 490.08 389.512C484.777 386.501 478.17 392.604 476.931 397.46Z" fill="white"/>
<path opacity="0.1" d="M482.704 556.043L483.967 585.639C483.93 587.564 484.271 589.478 484.971 591.269C485.781 593.008 487.53 594.452 489.432 594.305C490.021 594.276 490.58 594.033 491.003 593.62C491.525 592.858 491.732 591.921 491.578 591.008C491.216 581.728 490.849 572.452 490.477 563.183C490.355 560.188 491.432 553.187 488.558 551.188C484.947 548.691 482.567 552.828 482.704 556.043Z" fill="white"/>
<path d="M377.328 454.826C375.676 470.459 374.866 486.171 374.899 501.893C374.899 506.12 375.069 510.518 376.599 514.508C377.36 516.491 379.352 518.082 381.578 517.356C383.497 516.727 385.222 514.467 384.404 512.337C384.101 511.538 383.847 510.72 383.643 509.889C383.538 509.481 383.457 509.073 383.376 508.649C383.376 508.47 383.319 508.29 383.287 508.111C383.092 506.968 383.287 508.592 383.287 507.931C383.149 506.152 383.044 504.39 383.028 502.611C383.028 498.816 383.028 495.022 383.141 491.228C383.319 483.497 383.699 475.775 384.282 468.061C384.622 463.639 385.025 459.221 385.489 454.809C385.716 452.68 383.465 450.64 381.441 450.729C379.012 450.835 377.635 452.525 377.392 454.809L377.328 454.826Z" fill="#C99E47"/>
<path d="M392.614 454.857C391.237 472.265 390.574 489.728 390.622 507.244V510.892C390.622 512.426 390.557 513.985 391.367 515.355C391.967 516.371 392.937 517.111 394.07 517.415C395.203 517.72 396.409 517.567 397.431 516.987C397.935 516.696 398.377 516.307 398.731 515.843C399.085 515.378 399.345 514.848 399.496 514.283C399.646 513.717 399.684 513.127 399.608 512.547C399.531 511.966 399.342 511.407 399.051 510.9C398.482 510.032 397.605 509.416 396.6 509.178C395.596 508.939 394.539 509.097 393.645 509.618C392.752 510.139 392.09 510.984 391.794 511.981C391.499 512.978 391.592 514.05 392.055 514.98C392.055 514.98 392.112 515.07 392.144 515.119L391.731 511.977L391.998 511.316L393.456 509.847L393.286 509.945L395.326 509.391H395.148L397.188 509.954L396.994 509.823L398.443 511.292C398.549 511.447 398.694 513.446 398.759 512.263C398.759 512.059 398.759 511.855 398.759 511.651C398.759 511.178 398.759 510.704 398.759 510.231C398.759 509.293 398.759 508.346 398.759 507.399C398.759 505.506 398.759 503.621 398.759 501.687C398.759 497.907 398.813 494.129 398.921 490.353C399.088 482.797 399.396 475.244 399.844 467.693C400.103 463.384 400.403 459.068 400.743 454.767C400.743 453.685 400.316 452.648 399.557 451.882C398.798 451.117 397.768 450.688 396.695 450.688C395.629 450.712 394.613 451.15 393.859 451.91C393.105 452.67 392.671 453.693 392.646 454.767L392.614 454.857Z" fill="#C99E47"/>
<path d="M441.76 455.356C441.14 471.133 441.377 486.932 442.472 502.684C442.78 507.123 443.155 511.559 443.598 515.992C443.808 518.106 445.306 520.179 447.646 520.073C449.662 519.983 451.921 518.269 451.694 515.992C450.119 500.268 449.397 484.468 449.533 468.664C449.576 464.209 449.684 459.756 449.856 455.307C449.856 454.224 449.43 453.187 448.671 452.422C447.912 451.656 446.882 451.227 445.808 451.227C444.742 451.249 443.725 451.687 442.971 452.447C442.217 453.207 441.783 454.232 441.76 455.307V455.356Z" fill="#C99E47"/>
<path d="M122.367 459.525C117.809 461.688 116.975 467.759 116.772 472.239C116.554 477.135 117.793 482.031 121.104 485.67C124.059 488.934 128.391 490.705 132.593 491.692C137.437 492.774 142.364 493.435 147.321 493.667C155.863 494.156 166.639 494.132 172.485 486.69C175.339 483.049 176.67 478.429 176.193 473.813C175.717 469.231 173.72 464.944 170.525 461.647C162.599 453.332 150.478 452.597 139.912 454.948C139.4 455.09 138.92 455.333 138.501 455.662C138.082 455.992 137.731 456.401 137.468 456.867C137.206 457.333 137.037 457.846 136.972 458.378C136.906 458.91 136.945 459.449 137.087 459.966C137.392 460.996 138.081 461.867 139.009 462.398C139.936 462.929 141.032 463.078 142.066 462.814C143.111 462.585 144.163 462.373 145.224 462.21C145.337 462.21 146.122 462.079 145.62 462.145L146.025 462.096C146.592 462.039 147.151 461.981 147.717 461.941C148.797 461.87 149.877 461.845 150.956 461.867C151.458 461.867 151.96 461.867 152.462 461.932L153.215 461.998C153.531 461.998 154.025 462.088 153.442 461.998C155.363 462.271 157.248 462.761 159.061 463.458C159.87 463.752 158.955 463.393 158.939 463.401C159.133 463.467 159.32 463.552 159.498 463.654C159.911 463.85 160.308 464.062 160.72 464.283C161.473 464.699 162.194 465.18 162.907 465.662C163.619 466.143 162.907 465.613 162.818 465.58C162.989 465.689 163.146 465.817 163.287 465.964C163.635 466.257 163.967 466.559 164.299 466.877C164.631 467.196 164.866 467.449 165.109 467.742C165.247 467.889 165.376 468.044 165.506 468.199C165.919 468.681 165.854 468.338 165.506 468.199C165.748 468.305 166.056 468.966 166.202 469.187C166.445 469.57 166.68 469.962 166.89 470.362C166.987 470.541 167.084 470.721 167.165 470.908C167.246 471.096 167.53 471.618 167.271 471.096C167.012 470.574 167.271 471.153 167.344 471.292C167.416 471.431 167.505 471.757 167.578 471.994C167.701 472.369 167.803 472.75 167.886 473.136C167.943 473.373 167.991 473.618 168.04 473.862C168.088 474.107 168.137 474.678 168.08 474.05C168.024 473.422 168.08 474.695 168.08 474.866C168.08 475.307 168.08 475.747 168.08 476.196C168.101 476.591 168.069 476.986 167.983 477.371C168.299 476.498 168.032 476.971 167.983 477.306C167.983 477.494 167.91 477.689 167.862 477.877C167.77 478.258 167.665 478.633 167.546 479.003C167.489 479.191 167.416 479.37 167.36 479.558C167.708 478.832 167.214 480.031 167.36 479.558C167.19 479.909 167.02 480.252 166.825 480.594C166.704 480.798 166.574 481.002 166.445 481.206C166.315 481.41 166.024 481.859 166.34 481.386C166.655 480.913 166.34 481.386 166.202 481.541L165.805 481.982C165.489 482.316 165.149 482.618 164.809 482.92C164.162 483.491 164.906 482.838 164.906 482.847C164.752 482.975 164.587 483.09 164.413 483.189C164.033 483.441 163.642 483.672 163.239 483.883L162.696 484.16C162.575 484.217 161.976 484.479 162.494 484.258C163.012 484.038 162.397 484.258 162.267 484.34L161.546 484.593C160.711 484.864 159.859 485.082 158.996 485.246C158.591 485.327 158.186 485.393 157.765 485.466C157.174 485.564 158.502 485.384 157.903 485.466L157.093 485.556C155.241 485.713 153.381 485.773 151.523 485.735C149.283 485.735 147.048 485.629 144.819 485.417C143.702 485.327 142.584 485.213 141.475 485.082L140.665 484.984C139.993 484.911 141.24 485.066 140.568 484.984C139.896 484.903 139.394 484.813 138.811 484.715C136.987 484.446 135.179 484.079 133.395 483.614C132.585 483.385 131.775 483.124 130.966 482.798L130.407 482.577C129.873 482.365 131.047 482.887 130.545 482.626C130.043 482.365 129.735 482.243 129.346 482.022C128.958 481.802 128.496 481.525 128.091 481.206C127.923 481.105 127.764 480.991 127.614 480.864C128.302 481.598 127.695 480.864 127.533 480.758C127.204 480.461 126.893 480.145 126.602 479.811C126.513 479.713 126.1 479.215 126.448 479.656C126.796 480.097 126.213 479.289 126.148 479.175C125.842 478.793 125.606 478.359 125.452 477.893C125.541 478.563 125.59 478.253 125.452 477.975C125.314 477.698 125.241 477.363 125.152 477.053C125.013 476.584 124.902 476.107 124.82 475.625C124.772 475.364 124.537 474.695 124.82 475.576C124.768 475.307 124.744 475.034 124.748 474.76C124.675 473.706 124.675 472.648 124.748 471.594L124.796 470.933C124.796 470.705 124.926 469.684 124.796 470.696C124.845 470.223 124.934 469.758 125.023 469.301C125.112 468.844 125.193 468.485 125.314 468.036C125.363 467.857 125.428 467.669 125.484 467.489C125.727 466.608 125.063 468.199 125.484 467.408C125.573 467.253 125.662 467.081 125.743 466.926C125.946 466.624 125.946 466.616 125.743 466.926C125.541 467.236 125.541 467.188 125.743 466.926C126.221 466.747 125.484 466.453 125.525 467.032C125.525 466.935 126.173 466.665 126.229 466.633C128.156 465.719 128.796 462.789 127.687 461.051C127.126 460.138 126.238 459.478 125.207 459.206C124.176 458.934 123.081 459.072 122.149 459.591L122.367 459.525Z" fill="#C99E47"/>
<path opacity="0.25" d="M102.142 452.377C109.963 449.611 118.797 451.006 127.168 452.002C161.174 456.082 195.722 452.818 229.881 455.396C233.071 455.633 237.168 456.734 237.168 459.476C237.168 462.463 232.537 463.385 229.072 463.377C196.108 463.279 163.168 464.239 130.253 466.257C124.124 466.632 117.299 467.359 113.429 471.52C110.044 475.184 108.911 481.402 103.543 482.038C97.4055 482.765 92.3695 473.756 91.568 469.35C90.3454 462.561 94.6932 455.013 102.142 452.377Z" fill="white"/>
<path opacity="0.25" d="M251.426 456.204C256.495 453.837 262.672 454.922 268.332 455.812C282.332 458.011 296.531 458.641 310.669 457.689C313.017 457.534 315.421 457.338 317.68 457.917C319.939 458.497 322.028 460.055 322.271 462.087C322.514 464.119 320.652 466.167 318.49 466.983C316.328 467.799 313.778 467.946 311.349 467.995C296.305 468.288 281.262 468.305 266.219 468.044C262.826 468.124 259.437 467.776 256.13 467.007C250.989 465.612 244.01 459.688 251.426 456.204Z" fill="white"/>
<path d="M1278.13 617.316C1280.64 615.398 1283.73 615.145 1286.77 615.129C1290.57 615.129 1294.37 615.227 1298.16 615.276C1305.84 615.382 1313.55 615.227 1321.23 615.708C1325.21 615.834 1329.13 616.64 1332.84 618.091C1333.31 618.345 1333.86 618.41 1334.37 618.274C1334.88 618.138 1335.33 617.81 1335.61 617.356C1335.88 616.89 1335.96 616.334 1335.82 615.812C1335.69 615.289 1335.35 614.841 1334.89 614.566C1327.6 611.457 1319.71 611.489 1311.94 611.383C1303.71 611.269 1295.48 611.073 1287.26 611.049C1283.41 611.049 1279.26 611.367 1276.09 613.791C1275.64 614.076 1275.31 614.523 1275.17 615.041C1275.04 615.559 1275.1 616.11 1275.36 616.581C1275.63 617.046 1276.07 617.383 1276.59 617.52C1277.11 617.658 1277.66 617.584 1278.13 617.316Z" fill="#E5B64E"/>
<path d="M1273.76 700.898C1281.44 698.23 1289.24 695.448 1297.35 694.444C1305.45 693.44 1313.54 694.346 1321.37 696.247C1325.9 697.349 1330.36 698.752 1334.76 700.327C1335.02 700.398 1335.28 700.418 1335.55 700.385C1335.81 700.352 1336.07 700.267 1336.3 700.135C1336.53 700.003 1336.73 699.826 1336.9 699.615C1337.06 699.403 1337.18 699.162 1337.25 698.903C1337.32 698.645 1337.34 698.375 1337.31 698.109C1337.28 697.844 1337.19 697.587 1337.06 697.354C1336.93 697.121 1336.75 696.916 1336.54 696.752C1336.33 696.587 1336.09 696.465 1335.84 696.394C1327.83 693.603 1319.64 691.294 1311.2 690.372C1302.79 689.541 1294.3 690.316 1286.17 692.657C1281.62 693.905 1277.15 695.456 1272.68 697.006C1272.17 697.162 1271.74 697.51 1271.48 697.978C1271.22 698.446 1271.14 698.998 1271.28 699.519C1271.42 700.038 1271.76 700.478 1272.23 700.744C1272.69 701.01 1273.25 701.08 1273.76 700.939V700.898Z" fill="#E5B64E"/>
<path d="M1291.16 634.688C1291.81 632.909 1294.04 632.24 1295.75 631.897C1298.04 631.513 1300.39 631.644 1302.62 632.28C1304.8 632.818 1306.7 634.186 1307.9 636.099C1308.97 637.889 1309.35 640.013 1308.96 642.064C1308.15 645.899 1304.91 648.143 1301.78 650.102C1298.42 652.207 1294.74 654.182 1292.25 657.323C1290.51 659.638 1289.48 662.411 1289.28 665.304C1288.89 668.935 1288.69 672.648 1288.4 676.246C1288.41 676.786 1288.62 677.301 1289 677.682C1289.38 678.063 1289.89 678.28 1290.42 678.286L1314.71 678.384C1317.32 678.384 1317.33 674.304 1314.71 674.304L1290.42 674.206L1292.45 676.246C1292.72 672.778 1292.95 669.31 1293.26 665.842C1293.36 663.553 1294.18 661.356 1295.61 659.576C1298.41 656.385 1302.5 654.68 1305.98 652.183C1309.96 649.359 1313.22 645.483 1313.13 640.31C1313.02 634.337 1308.87 629.637 1303.22 628.225C1297.76 626.862 1289.49 627.409 1287.24 633.602C1287.17 633.861 1287.15 634.13 1287.18 634.396C1287.22 634.662 1287.3 634.919 1287.43 635.152C1287.56 635.385 1287.74 635.589 1287.95 635.754C1288.16 635.919 1288.4 636.04 1288.66 636.112C1288.91 636.183 1289.18 636.202 1289.44 636.17C1289.71 636.137 1289.96 636.052 1290.19 635.919C1290.42 635.787 1290.63 635.61 1290.79 635.399C1290.95 635.188 1291.07 634.946 1291.14 634.688H1291.16Z" fill="#E5B64E"/>
<path d="M1020.34 577.723L960.466 574.051L982.496 712.42C982.496 712.42 985.937 716.998 999.021 719.552C1009.02 721.502 1031.66 721.502 1041.65 719.552C1054.73 716.998 1058.17 712.42 1058.17 712.42L1080.21 574.051L1020.34 577.723Z" fill="#E5B64E"/>
<path d="M1047.12 576.075C1047.07 578.189 1047.03 580.302 1046.95 582.391C1046.44 594.631 1044.09 606.716 1041.61 618.711C1037.56 638.189 1033.06 657.986 1022.81 675.015C1015.31 687.443 1004.25 698.369 990.755 703.902C988.423 704.856 984.812 705.305 981.484 706.089L982.496 712.445C982.496 712.445 985.937 717.023 999.021 719.577C1009.02 721.527 1031.66 721.527 1041.65 719.577C1054.73 717.023 1058.17 712.445 1058.17 712.445L1080.21 574.076L1047.12 576.075Z" fill="#D8A64E"/>
<path d="M1080.21 574.051C1080.21 577.495 1053.41 580.294 1020.3 580.294C987.192 580.294 960.425 577.495 960.425 574.051C960.425 570.608 987.233 567.801 1020.3 567.801C1053.37 567.801 1080.21 570.624 1080.21 574.051Z" fill="#A8803F"/>
<path opacity="0.28" d="M973.938 591.482C973.797 592.772 973.887 594.076 974.205 595.333C978.038 615.396 981.864 635.459 985.686 655.522C986.164 657.97 987.896 661.234 990.188 660.222C991.807 659.52 991.904 657.26 991.718 655.489C989.629 635.587 986.496 615.644 987.767 595.676C987.905 593.465 988.067 591.107 986.957 589.148C984.553 584.978 974.772 586.586 973.938 591.482Z" fill="white"/>
<path opacity="0.28" d="M992.423 667.018C991.07 665.925 988.884 667.018 988.221 668.61C987.557 670.201 987.913 672.061 988.293 673.775C988.941 676.685 989.586 679.601 990.228 682.522C990.356 683.645 990.845 684.694 991.621 685.509C992.803 686.504 994.698 686.178 995.831 685.134C996.901 683.999 997.565 682.538 997.718 680.98C998.035 678.471 997.967 675.928 997.515 673.44C997.054 670.413 995.669 666.79 992.657 666.496L992.423 667.018Z" fill="white"/>
<path d="M1034.18 580.294L1062.51 499.771L1081.64 473.676L1077.44 503.982L1049.92 579.478L1034.18 580.294Z" fill="#4F5E40"/>
<path d="M1011.34 580.221L997.92 487.76V446.666L1014.91 482.888L1027.51 580.294L1011.34 580.221Z" fill="#84321F"/>
<path d="M996.487 440.195L997.92 463.631L1005.26 462.301L996.487 440.195Z" fill="#4C3434"/>
<path d="M1074.68 483.166L1086.63 466.201L1080.02 485.353L1074.68 483.166Z" fill="#4C3434"/>
</g>
<defs>
<clipPath id="clip0_296_378">
<rect width="1440" height="778" fill="white"/>
</clipPath>
</defs>
</svg>
